<?xml version="1.0" standalone="no"?><!-- Generator: Gravit.io --><svg xmlns="http://www.w3.org/2000/svg" xmlns:xlink="http://www.w3.org/1999/xlink" style="isolation:isolate" viewBox="0 0 575.941 447.65" width="575.941" height="447.65"><defs><clipPath id="_clipPath_WeL4TRSstH8MnngV08cBZvKU14sMFxXl"><rect width="575.941" height="447.65"/></clipPath></defs><g clip-path="url(#_clipPath_WeL4TRSstH8MnngV08cBZvKU14sMFxXl)"><path d=" M 487.941 280.35 L 487.941 423.65 C 487.941 436.95 477.241 447.65 463.941 447.65 L 347.941 447.65 C 341.341 447.65 335.941 442.25 335.941 435.65 L 335.941 323.65 C 335.941 317.05 330.541 311.65 323.941 311.65 L 251.941 311.65 C 245.341 311.65 239.941 317.05 239.941 323.65 L 239.941 435.65 C 239.941 442.25 234.541 447.65 227.941 447.65 L 111.941 447.65 C 98.641 447.65 87.941 436.95 87.941 423.65 L 87.941 280.35 C 87.941 276.75 89.541 273.35 92.341 271.05 L 280.341 116.25 C 284.741 112.65 291.141 112.65 295.641 116.25 L 483.641 271.05 C 486.341 273.35 487.941 276.75 487.941 280.35 Z  M 571.541 219.45 L 487.941 150.55 L 487.941 12.05 C 487.941 5.45 482.541 0.05 475.941 0.05 L 419.941 0.05 C 413.341 0.05 407.941 5.45 407.941 12.05 L 407.941 84.65 L 318.441 10.95 C 300.741 -3.65 275.141 -3.65 257.441 10.95 L 4.341 219.45 C -0.759 223.65 -1.459 231.25 2.741 236.35 L 28.241 267.35 C 32.441 272.45 40.041 273.15 45.141 268.95 L 280.341 75.25 C 284.741 71.65 291.141 71.65 295.641 75.25 L 530.841 268.95 C 535.941 273.15 543.541 272.45 547.741 267.35 L 573.241 236.35 C 577.441 231.15 576.641 223.65 571.541 219.45 L 571.541 219.45 Z " fill="rgb(255,255,255)"/></g></svg>